<svg t="1684458514681" class="icon" viewBox="0 0 1024 1024" version="1.1"
    xmlns="http://www.w3.org/2000/svg" p-id="1382" width="200" height="200">
    <path
        d="M642.5 293.8H381.3c-22.5 0-40.8 17.6-40.8 39.3v58.1c0 52.1 1.3 278.7 1.8 349 0.1 13.2 9.8 24.3 23.3 27 22.8 4.3 73.7 16.5 146.4 16.5s123.6-12.2 146.4-16.5c13.4-2.5 23.2-13.8 23.3-27 0.5-70.4 1.8-297.1 1.8-349v-58.1c-0.2-21.8-18.5-39.3-41-39.3z m0 0"
        fill="#EA3B3B" p-id="1383"></path>
    <path
        d="M580.1 301.1s-7.8 138.5 33.9 201.4c36.1 54.5-94.2 301.9-94.2 301.9l103.8-8.4s51.3-215.5 7.6-304.5C595.6 418.8 650 293.3 650 293.3l-69.9 7.8z m0 0"
        fill="#FFFFFF" p-id="1384"></path>
    <path d="M441.5 312.2s-39.1 37-39.1 93.3v334.1l-96.2-18.5 4.5-428 130.8 19.1z m0 0"
        fill="#F25353" p-id="1385"></path>
    <path
        d="M629.2 293.8c29.9 0 54.1 23.3 54.1 52.1v45.3c0 52.1-1.3 278.7-1.8 349-0.1 13.2-9.8 24.3-23.3 27-22.8 4.3-73.7 16.5-146.4 16.5-72.5 0-123.6-12.2-146.4-16.5-13.4-2.5-23.2-13.8-23.3-27-0.5-70.4-1.8-297.1-1.8-349v-45.3c0-28.8 24.2-52.1 54.1-52.1h234.8m0-42.7H394.6c-54.3 0-98.4 42.6-98.4 94.8v45.3c0 52.2 1.3 280.5 1.8 349.3 0.2 33.3 25 62.2 59.1 68.6 2.6 0.4 5.6 1.1 9.1 1.8 27 5.4 77.5 15.5 145.9 15.5s118.7-10.1 145.9-15.5c3.4-0.7 6.3-1.2 9.1-1.8 34.1-6.5 58.9-35.2 59.1-68.6 0.5-68.7 1.8-297.2 1.8-349.3v-45.3c-0.4-52.2-44.6-94.8-98.8-94.8z m0 0"
        fill="#4C2F1B" p-id="1386"></path>
    <path
        d="M511.9 309.2c-178.2 0-178.2-32.7-178.2-45.1 0-12.3 0-45.1 178.2-45.1s178.2 32.7 178.2 45.1c0 12.3 0 45.1-178.2 45.1z m0 0"
        fill="#E4F1F7" p-id="1387"></path>
    <path
        d="M511.9 240.3c86.2 0 156 10.6 156 23.8s-69.8 23.8-156 23.8-156-10.6-156-23.8 69.8-23.8 156-23.8m0-42.7c-44 0-85.6 2.6-117.2 7.5-24.9 3.7-83.1 12.7-83.1 59s58.3 55.3 83.1 59c31.6 4.9 73.4 7.5 117.2 7.5 43.9 0 85.6-2.6 117.2-7.5 24.9-3.7 83.1-12.7 83.1-59s-58.3-55.3-83.1-59c-31.6-4.9-73.2-7.5-117.2-7.5z m0 0"
        fill="#4C2F1B" p-id="1388"></path>
    <path
        d="M511.9 805c-66.1 0-115.1-9.9-141.3-15.1-3.5-0.7-6.6-1.4-9.3-1.8-23.8-4.4-41-24.6-41.1-47.8v-4.1c0-6.6 3.2-12.8 8.6-16.9 3.9-2.9 8.7-4.5 13.6-4.5 1.9 0 3.8 0.2 5.5 0.7 0.7 0.2 73.9 18.2 163.8 18.2 89.8 0 163.5-18 164.4-18.2 1.9-0.5 3.6-0.7 5.5-0.7 4.8 0 9.6 1.6 13.6 4.5 5.4 4.1 8.6 10.3 8.6 16.9v3.8c0 23.2-17.3 43.4-41.1 47.9-2.7 0.5-5.8 1.1-9.3 1.8-26.5 5.5-75.4 15.3-141.5 15.3z m0 0"
        fill="#E4F1F7" p-id="1389"></path>
    <path
        d="M342.2 736.4s75.2 18.9 169.3 18.9c94 0 169.9-18.9 169.9-18.9v3.8c0 13.2-9.8 24.3-23.3 27-22.8 4.3-73.7 16.5-146.4 16.5s-123.6-12.2-146.4-16.5c-13.4-2.5-23.2-13.8-23.3-27v-3.8m0.2-42.9c-9.8 0-19.3 3.1-27.2 8.9-10.8 8-17.3 20.6-17.3 33.9v3.8c0.2 33.6 25 62.4 59.1 68.9 2.6 0.4 5.6 1.1 9.1 1.8 27 5.4 77.5 15.5 145.9 15.5s118.7-10.1 145.9-15.5c3.4-0.7 6.4-1.2 9.1-1.8 34.2-6.5 59.1-35.5 59.1-68.9v-3.8c0-13.2-6.4-25.7-17.2-33.7-7.9-5.9-17.4-8.9-27.2-8.9-3.8 0-7.4 0.5-11.1 1.4-0.7 0.1-71.9 17.6-158.7 17.6-87.3 0-157.5-17.3-158.1-17.4-3.8-1.3-7.6-1.8-11.4-1.8z m0 0"
        fill="#4C2F1B" p-id="1390"></path>
    <path
        d="M543.9 264.1c0 3.5 19.9 6.3 44.6 6.3 24.6 0 44.6-2.8 44.6-6.3s-19.9-6.3-44.6-6.3c-24.7 0-44.6 2.8-44.6 6.3z m0 0"
        fill="#BECFD3" p-id="1391"></path>
</svg>